PathFileType	4	(X/Y/Z)	Walk1.trc
DataRate	CameraRate	NumFrames	NumMarkers	Units	OrigDataRate	OrigDataStartFrame	OrigNumFrames
200.000000	200.000000	6	61	mm	200.000000	885	925
Frame#	Times		RCAR		LTH3		RTH2		LBHD		RWRU		LWRU		LUA1		RTH3		LElbow		RFA1		LFA1		LCAR		LElbowM		C7		RTB3		RToe		RPSI		RTB2		RTB1		RMT5		LTH2		RElbow		RLFC		RBHD		RMT1		RTB4		RMMAL		LWRR		T10		RLMAL		LPSI		RBack		RCAL		LLFC		STRN		LASI		LTB3		RUA1		LACR1		RASI		RElbowM		LMMAL		RFHD		LTB1		LTB2		LMFC		LCAL		RTH1		LTB4		RMFC		LFHD		LLMAL		LMT5		RACR1		RTH4		LTH4		CLAV		RWRR		LToe		LMT1		LTH1
			X1	Y1	Z1	X2	Y2	Z2	X3	Y3	Z3	X4	Y4	Z4	X5	Y5	Z5	X6	Y6	Z6	X7	Y7	Z7	X8	Y8	Z8	X9	Y9	Z9	X10	Y10	Z10	X11	Y11	Z11	X12	Y12	Z12	X13	Y13	Z13	X14	Y14	Z14	X15	Y15	Z15	X16	Y16	Z16	X17	Y17	Z17	X18	Y18	Z18	X19	Y19	Z19	X20	Y20	Z20	X21	Y21	Z21	X22	Y22	Z22	X23	Y23	Z23	X24	Y24	Z24	X25	Y25	Z25	X26	Y26	Z26	X27	Y27	Z27	X28	Y28	Z28	X29	Y29	Z29	X30	Y30	Z30	X31	Y31	Z31	X32	Y32	Z32	X33	Y33	Z33	X34	Y34	Z34	X35	Y35	Z35	X36	Y36	Z36	X37	Y37	Z37	X38	Y38	Z38	X39	Y39	Z39	X40	Y40	Z40	X41	Y41	Z41	X42	Y42	Z42	X43	Y43	Z43	X44	Y44	Z44	X45	Y45	Z45	X46	Y46	Z46	X47	Y47	Z47	X48	Y48	Z48	X49	Y49	Z49	X50	Y50	Z50	X51	Y51	Z51	X52	Y52	Z52	X53	Y53	Z53	X54	Y54	Z54	X55	Y55	Z55	X56	Y56	Z56	X57	Y57	Z57	X58	Y58	Z58	X59	Y59	Z59	X60	Y60	Z60	X61	Y61	Z61

885	4.425	954.03	868.79	272.46	851.28	620.19	-182.36	982.54	743.19	155.47	826.12	1649.9	-136.79	887.93	885.69	266.53	946.46	871.82	-320.64	859.12	1298.1	-316.27	936.54	634.57	180.02	853.08	1142.4	-343.29	834.7	1012.2	269.47	897.7	996.87	-343.26	1025.9	847.16	-317.5	808.93	1128.5	-281.16	796.37	1524.9	-61.557	861.58	232.51	95.205	922.32	45.606	129.03	690.92	1033.1	10.768	876.76	318.51	165.47	957.44	391.79	113.79	827.73	56.439	167.4	921.23	714.66	-174.74	790.96	1159.5	248.82	943.91	523.04	176.4	831.34	1664.2	4.1911	881.62	51.638	100.53	911	310.81	103.25	813.5	147.2	56.301	1005.2	897.34	-266.36	689.07	1302.9	-53.31	761.53	139.28	127.99	691.43	1030.4	-68.088	710.78	1443.3	70.739	705.75	123.58	68.855	839.66	516.09	-169.69	968.4	1261.4	-41.545	905.45	1048.1	-168.3	829.51	194.17	-86.903	825.02	1313	209.12	877.28	1470.8	-218.81	898.89	1057.4	117.36	765.04	1141	172.94	795.84	91.573	-45.507	1008.2	1696.2	-26.606	871.04	375.79	-91.803	829.72	291.77	-160.79	849.03	522.18	-40.528	707.27	28.229	-84.763	890.11	816.69	177.13	851.56	288.23	-88.305	979.74	532.48	48.186	1005.9	1690.1	-102.96	767.57	70.768	-126.86	866.94	21.29	-160.3	862.83	1480.8	106.51	915.5	724.27	183.98	853.21	711.05	-199.1	926.25	1435.4	-49.386	944.36	905.91	217.48	967.35	31.946	-89.591	913.62	39.92	-75.061	858.74	802.71	-213.67
886	4.43	955.06	867.79	273.83	853.32	620.18	-182.49	988.3	743.92	154.75	831.07	1649.9	-136.78	889.13	885.16	267.46	955.93	872.91	-321.42	865.14	1298.5	-316.62	943.04	635.08	179.68	860.27	1142.7	-344.03	836.82	1012.1	269.87	906.13	997.57	-344.09	1035.6	849.02	-318.41	816.13	1128.3	-282.01	801.22	1524.8	-61.653	874.88	230.7	94.956	940.14	45.399	129.32	695.63	1033.1	10.704	887.96	317.24	165.19	966.97	392.15	113.44	845.21	54.147	167.52	924.06	714.07	-174.97	794.24	1159.6	248.66	951.09	523.37	175.83	836.16	1664	4.2055	899.32	50.548	100.73	922.5	310.17	102.94	829.04	144.26	56.081	1014.5	899	-267.25	693.83	1303	-53.497	777.05	135.22	127.81	696.1	1030.5	-68.141	715.46	1443.3	70.463	721.78	117.98	68.581	840.95	516.04	-169.79	973.18	1261.3	-41.738	909.69	1047.8	-168.58	829.86	194.08	-86.943	828.94	1312.9	209.07	882.31	1470.9	-218.78	903.46	1057.2	117.28	768.59	1141.1	172.79	795.88	91.605	-45.486	1013.1	1696.1	-26.392	871.87	375.58	-91.884	830.32	291.69	-160.86	850.75	522.03	-40.67	707.3	28.288	-84.721	896.15	816.55	176.62	852.15	288.08	-88.367	986.06	533.11	47.483	1010.8	1690.1	-102.76	767.58	70.82	-126.83	866.95	21.275	-160.31	867.52	1480.7	106.5	921.57	723.61	183.51	855.94	711.07	-199.16	931.07	1435.3	-49.434	945.99	904.86	218.69	967.39	31.913	-89.575	913.63	39.898	-75.08	862.19	802.66	-213.84
887	4.435	956.09	866.76	275.17	855.38	620.16	-182.62	993.98	744.54	154.04	836.02	1649.8	-136.76	890.33	884.61	268.38	965.37	873.97	-322.16	871.15	1298.8	-316.94	949.42	635.52	179.31	867.45	1143	-344.73	838.96	1012	270.27	914.52	998.26	-344.89	1045.2	850.84	-319.28	823.32	1128.2	-282.82	806.09	1524.8	-61.727	888.26	228.92	94.739	958.05	45.323	129.65	700.34	1033	10.651	899.15	315.96	164.88	976.42	392.48	113.08	862.81	51.951	167.66	926.89	713.47	-175.2	797.55	1159.6	248.52	958.12	523.64	175.26	841	1663.9	4.2296	917.14	49.57	100.96	933.98	309.54	102.64	844.72	141.37	55.879	1023.8	900.63	-268.1	698.6	1302.9	-53.651	792.73	131.17	127.66	700.78	1030.5	-68.16	720.17	1443.2	70.215	738.03	112.37	68.322	842.26	515.98	-169.89	977.97	1261.1	-41.915	913.96	1047.5	-168.83	830.23	194	-86.982	832.89	1312.8	209.03	887.34	1470.9	-218.73	908.06	1056.9	117.2	772.15	1141.1	172.65	795.92	91.639	-45.463	1017.9	1695.9	-26.177	872.71	375.38	-91.962	830.94	291.6	-160.91	852.48	521.88	-40.812	707.33	28.355	-84.679	902.19	816.33	176.08	852.75	287.94	-88.421	992.22	533.64	46.752	1015.7	1690	-102.55	767.58	70.874	-126.8	866.95	21.262	-160.33	872.23	1480.5	106.51	927.58	722.7	182.99	858.68	711.08	-199.22	935.89	1435.1	-49.469	947.61	903.78	219.9	967.43	31.878	-89.559	913.63	39.874	-75.099	865.63	802.59	-214
888	4.44	957.13	865.71	276.5	857.46	620.12	-182.75	999.57	745.06	153.33	840.98	1649.7	-136.73	891.54	884.05	269.3	974.78	875.01	-322.88	877.15	1299	-317.23	955.66	635.86	178.92	874.63	1143.3	-345.41	841.13	1011.9	270.67	922.89	998.92	-345.66	1054.8	852.65	-320.1	830.5	1128	-283.61	810.96	1524.6	-61.778	901.7	227.16	94.547	976.02	45.388	130.01	705.07	1032.9	10.611	910.31	314.67	164.56	985.78	392.8	112.71	880.52	49.867	167.85	929.75	712.85	-175.41	800.9	1159.6	248.4	964.98	523.84	174.69	845.85	1663.7	4.2644	935.06	48.719	101.23	945.43	308.9	102.35	860.53	138.55	55.697	1033	902.24	-268.9	703.38	1302.9	-53.773	808.56	127.17	127.52	705.46	1030.5	-68.149	724.9	1443.1	69.995	754.5	106.8	68.082	843.6	515.92	-169.99	982.78	1260.9	-42.074	918.28	1047.2	-169.06	830.61	193.92	-87.02	836.89	1312.6	209	892.35	1470.9	-218.68	912.7	1056.6	117.13	775.74	1141.1	172.51	795.97	91.675	-45.439	1022.8	1695.7	-25.962	873.58	375.17	-92.039	831.57	291.52	-160.97	854.23	521.74	-40.951	707.36	28.431	-84.638	908.22	816.03	175.53	853.36	287.79	-88.468	998.2	534.05	45.997	1020.7	1689.8	-102.34	767.59	70.932	-126.77	866.94	21.25	-160.34	876.97	1480.3	106.53	933.53	721.52	182.41	861.44	711.06	-199.26	940.73	1434.9	-49.493	949.22	902.68	221.1	967.47	31.842	-89.542	913.63	39.85	-75.117	869.07	802.51	-214.15
889	4.445	958.17	864.64	277.8	859.57	620.08	-182.87	1005.1	745.46	152.62	845.94	1649.6	-136.68	892.76	883.46	270.2	984.16	876.03	-323.57	883.14	1299.2	-317.49	961.78	636.12	178.5	881.79	1143.6	-346.06	843.32	1011.7	271.07	931.22	999.56	-346.39	1064.3	854.43	-320.87	837.66	1127.8	-284.37	815.85	1524.5	-61.804	915.2	225.46	94.377	994.06	45.606	130.41	709.8	1032.8	10.583	921.45	313.38	164.22	995.05	393.11	112.33	898.35	47.913	168.07	932.61	712.23	-175.6	804.27	1159.5	248.29	971.68	523.96	174.1	850.72	1663.4	4.3106	953.06	48.008	101.52	956.85	308.28	102.07	876.47	135.8	55.534	1042.2	903.82	-269.66	708.16	1302.8	-53.862	824.52	123.23	127.4	710.16	1030.4	-68.112	729.65	1442.9	69.803	771.18	101.28	67.866	844.96	515.85	-170.07	987.59	1260.7	-42.214	922.64	1046.9	-169.26	831.01	193.84	-87.058	840.92	1312.4	208.99	897.37	1470.8	-218.61	917.38	1056.3	117.08	779.35	1141.1	172.39	796.02	91.712	-45.412	1027.7	1695.5	-25.745	874.48	374.96	-92.114	832.21	291.43	-161.01	855.98	521.6	-41.082	707.4	28.519	-84.597	914.2	815.68	174.99	853.99	287.64	-88.508	1004	534.35	45.216	1025.6	1689.7	-102.13	767.6	70.993	-126.74	866.93	21.238	-160.36	881.73	1480.1	106.57	939.42	720.11	181.77	864.22	711.02	-199.3	945.58	1434.7	-49.504	950.84	901.56	222.29	967.51	31.804	-89.526	913.63	39.827	-75.135	872.51	802.41	-214.29
890	4.45	959.22	863.56	279.09	861.69	620.02	-182.98	1010.5	745.74	151.91	850.92	1649.4	-136.63	893.99	882.87	271.1	993.48	877.04	-324.23	889.12	1299.4	-317.73	967.75	636.29	178.07	888.94	1143.8	-346.67	845.53	1011.5	271.47	939.51	1000.2	-347.09	1073.8	856.18	-321.6	844.8	1127.6	-285.1	820.76	1524.3	-61.807	928.74	223.81	94.222	1012.1	45.989	130.84	714.54	1032.6	10.569	932.57	312.1	163.86	1004.2	393.4	111.93	916.26	46.106	168.31	935.49	711.6	-175.77	807.68	1159.4	248.19	978.23	524	173.51	855.6	1663.2	4.3692	971.13	47.451	101.84	968.23	307.68	101.79	892.5	133.16	55.389	1051.3	905.37	-270.38	712.96	1302.7	-53.917	840.62	119.37	127.31	714.87	1030.3	-68.051	734.42	1442.8	69.64	788.04	95.846	67.681	846.34	515.78	-170.16	992.4	1260.4	-42.335	927.05	1046.5	-169.45	831.42	193.76	-87.094	844.99	1312.1	208.99	902.38	1470.7	-218.53	922.09	1055.9	117.03	782.98	1141	172.27	796.08	91.751	-45.382	1032.6	1695.2	-25.526	875.4	374.74	-92.189	832.86	291.35	-161.05	857.72	521.47	-41.201	707.44	28.62	-84.554	920.1	815.3	174.49	854.65	287.48	-88.543	1009.7	534.54	44.412	1030.6	1689.4	-101.92	767.61	71.059	-126.71	866.92	21.227	-160.38	886.52	1479.8	106.63	945.24	718.49	181.08	867.02	710.96	-199.32	950.45	1434.5	-49.502	952.45	900.42	223.47	967.55	31.765	-89.51	913.63	39.804	-75.153	875.96	802.29	-214.41
